<?xml version="1.0" standalone="no"?><!DOCTYPE svg PUBLIC "-//W3C//DTD SVG 1.1//EN" "http://www.w3.org/Graphics/SVG/1.1/DTD/svg11.dtd"><svg t="1495507170324" class="icon" style="" viewBox="0 0 1024 1024" version="1.1" xmlns="http://www.w3.org/2000/svg" p-id="3519" xmlns:xlink="http://www.w3.org/1999/xlink" width="64" height="64"><defs><style type="text/css"></style></defs><path d="M936.741 462.414c-0.412-14.642-3.32-25.443-13.707-40.294-1.974-3.01-319.02-341.837-319.02-341.837-22.017-23.469-51.064-34.711-80.242-34.738v-0.233c-0.419-0.026-0.939 0.131-1.458 0.131s-1.037-0.157-1.557-0.131v0.233c-29.076 0.026-58.151 11.269-80.272 34.738 0 0-316.94 338.826-318.913 341.837-10.384 14.851-13.291 25.652-13.708 40.294v5.504c0 46.21 37.489 83.756 83.701 83.756h20.042v300.375c0 48.912 43.925 88.529 98.033 88.529 54.105 0 97.927-39.616 97.927-88.53V551.674h229.368v300.375c0 48.912 43.93 88.529 98.035 88.529s97.924-39.616 97.924-88.53V551.674h20.046c46.314 0 83.802-37.544 83.802-83.756 0-0.416-0.102-0.83-0.102-1.245l0.101-4.258zM811.918 159.62l0.521 0.65 63.036 66.618c8.93 9.398 23.68 9.814 33.023 0.934 0.103-0.051 0.103-0.156 0.314-0.26l0.828-0.778c2.803-2.906 4.467-5.502 5.506-10.489 0.207-0.934 0.31-1.974 0.412-2.96 0.207-1.09 0.414-2.128 0.52-3.427l7.272-123.63c0.519-9.01-2.805-17.03-8.306-22.95v-0.052c-0.107-0.078-0.212-0.181-0.316-0.259a4.277 4.277 0 0 1-0.312-0.338v0.025c-5.606-5.865-13.397-9.606-22.43-9.578l-123.889 0.311a60.334 60.334 0 0 0-3.427 0.234c-1.042 0.077-1.977 0.105-2.908 0.285-5.089 0.752-7.788 2.233-10.905 4.959l-0.832 0.832c0 0.05-0.208 0.129-0.208 0.18-9.34 8.907-9.762 23.653-0.936 33.05l63.037 66.643z" fill="#F25C29" p-id="3520"></path></svg>